# Blender v2.63 (sub 0) OBJ File: 'cube.blend'
# www.blender.org
v -0.866700 -1.000000 -0.866700
v 0.866700 -1.000000 -0.866700
v 0.866700 -1.000000 0.866700
v -0.866700 -1.000000 0.866700
v 0.866699 1.000000 0.866701
v 0.866700 1.000000 -0.866700
v -0.866700 1.000000 -0.866700
v -0.866700 1.000000 0.866700
v 1.000000 -0.866700 0.866700
v 1.000000 -0.866700 -0.866700
v 1.000000 0.866700 -0.866700
v 0.999999 0.866700 0.866701
v -0.866700 -0.866700 1.000000
v 0.866700 -0.866700 1.000000
v 0.866699 0.866700 1.000000
v -0.866700 0.866700 1.000000
v -1.000000 -0.866700 -0.866700
v -1.000000 -0.866700 0.866700
v -1.000000 0.866700 0.866700
v -1.000000 0.866700 -0.866700
v -0.866700 0.866700 -1.000000
v 0.866700 0.866700 -1.000000
v 0.866700 -0.866700 -1.000000
v -0.866700 -0.866700 -1.000000
v -0.976453 -0.866700 0.923546
v -0.923547 -0.866700 0.976453
v -0.923547 0.866700 0.976453
v -0.976454 0.866700 0.923546
v 0.927189 -0.945621 0.927189
v 0.945621 -0.927189 0.927189
v 0.927189 -0.927189 0.945621
v -0.927189 -0.945621 0.927189
v -0.927189 -0.927189 0.945621
v -0.945621 -0.927189 0.927189
v 0.945621 -0.927189 -0.927189
v 0.927189 -0.945621 -0.927189
v 0.927189 -0.927189 -0.945621
v -0.927189 -0.945621 -0.927190
v -0.945621 -0.927189 -0.927190
v -0.927189 -0.927189 -0.945622
v -0.927189 0.927189 -0.945621
v -0.945621 0.927189 -0.927189
v -0.927189 0.945621 -0.927189
v -0.866700 -0.923547 0.976453
v -0.866700 -0.976453 0.923546
v 0.866700 -0.976453 0.923547
v 0.866700 -0.923547 0.976453
v -0.866700 0.923547 -0.976453
v -0.866700 0.976453 -0.923547
v 0.866700 0.976453 -0.923546
v 0.866700 0.923547 -0.976453
v 0.866700 -0.923547 -0.976453
v 0.866700 -0.976453 -0.923547
v -0.866700 -0.976453 -0.923547
v -0.866700 -0.923547 -0.976454
v 0.945621 0.927189 0.927190
v 0.927189 0.945621 0.927190
v 0.927189 0.927189 0.945622
v -0.923547 -0.976453 0.866700
v -0.976453 -0.923547 0.866700
v -0.976453 -0.923547 -0.866700
v -0.923546 -0.976453 -0.866700
v -0.923547 0.976453 -0.866700
v -0.976453 0.923547 -0.866700
v -0.976454 0.923547 0.866700
v -0.923547 0.976453 0.866700
v 0.923547 -0.866700 0.976453
v 0.976453 -0.866700 0.923547
v 0.976453 0.866700 0.923547
v 0.923546 0.866700 0.976454
v 0.976454 0.923547 -0.866700
v 0.923547 0.976453 -0.866700
v 0.923546 0.976453 0.866701
v 0.976453 0.923547 0.866701
v -0.976453 0.866700 -0.923547
v -0.923547 0.866700 -0.976453
v -0.923546 -0.866700 -0.976454
v -0.976453 -0.866700 -0.923547
v -0.927190 0.945621 0.927189
v -0.945622 0.927189 0.927189
v -0.927190 0.927189 0.945621
v 0.945622 0.927189 -0.927189
v 0.927190 0.927189 -0.945621
v 0.927190 0.945621 -0.927189
v 0.976453 -0.866700 -0.923547
v 0.923547 -0.866700 -0.976453
v 0.923547 0.866700 -0.976453
v 0.976454 0.866700 -0.923546
v 0.866699 0.923547 0.976454
v 0.866699 0.976453 0.923547
v -0.866700 0.976453 0.923546
v -0.866700 0.923547 0.976453
v 0.976453 -0.923547 0.866700
v 0.923547 -0.976453 0.866700
v 0.923547 -0.976453 -0.866700
v 0.976453 -0.923547 -0.866700
v 0.927189 0.927189 0.945622
v 0.866699 0.923547 0.976454
v 0.976453 -0.923547 -0.866700
v 0.945621 -0.927189 -0.927189
v 0.945621 -0.927189 0.927189
v 0.976453 -0.923547 0.866700
v 0.945622 0.927189 -0.927189
v 0.976454 0.923547 -0.866700
v 0.976453 0.923547 0.866701
v 0.945621 0.927189 0.927190
v 0.866700 -0.923547 0.976453
v 0.927189 -0.927189 0.945621
v -0.945621 -0.927189 0.927189
v -0.927189 -0.927189 0.945621
v -0.866700 -0.923547 0.976453
v -0.976453 -0.923547 -0.866700
v -0.976453 -0.923547 0.866700
v -0.976454 0.923547 0.866700
v -0.976453 0.923547 -0.866700
v -0.976453 0.866700 -0.923547
v -0.976453 -0.866700 -0.923547
v -0.927190 0.927189 0.945621
v -0.945622 0.927189 0.927189
v -0.866700 0.923547 0.976453
vt 0.982653 0.019886
vt 0.979909 0.240546
vt 0.759203 0.237974
vt 0.761880 0.017209
vt 0.759274 0.508016
vt 0.979830 0.505371
vt 0.982648 0.725886
vt 0.762022 0.728636
vt 0.733818 0.260730
vt 0.733821 0.485542
vt 0.508622 0.485701
vt 0.508711 0.260661
vt 0.483599 0.260747
vt 0.483086 0.485828
vt 0.258020 0.485283
vt 0.258533 0.260264
vt 0.233454 0.260282
vt 0.232939 0.485221
vt 0.007978 0.484719
vt 0.008495 0.259749
vt 0.758917 0.483730
vt 0.758897 0.262309
vt 0.979994 0.262425
vt 0.979906 0.483498
vt 0.250758 0.260304
vt 0.250279 0.485171
vt 0.240713 0.485206
vt 0.241193 0.260369
vt 0.749152 0.007324
vt 0.752031 0.004369
vt 0.752898 0.007947
vt 0.992581 0.007117
vt 0.995566 0.009992
vt 0.991973 0.010875
vt 0.750117 0.247671
vt 0.749711 0.252030
vt 0.746248 0.248822
vt 0.989859 0.251537
vt 0.987319 0.252899
vt 0.987152 0.249980
vt 0.989772 0.494383
vt 0.987067 0.495939
vt 0.987232 0.493022
vt 0.983221 0.012301
vt 0.761565 0.009657
vt 0.760886 0.000000
vt 0.984094 0.002631
vt 0.979695 0.498585
vt 0.758989 0.500566
vt 0.758725 0.491354
vt 0.979727 0.490314
vt 0.758879 0.245447
vt 0.979777 0.247335
vt 0.979812 0.255608
vt 0.758778 0.254760
vt 0.753049 0.737897
vt 0.752184 0.741474
vt 0.749305 0.738523
vt 1.000000 0.018911
vt 0.996992 0.244566
vt 0.987315 0.241894
vt 0.990261 0.019590
vt 0.996902 0.501349
vt 1.000000 0.726860
vt 0.990239 0.726216
vt 0.987231 0.504021
vt 0.500927 0.260722
vt 0.500731 0.485637
vt 0.491001 0.485743
vt 0.491351 0.260812
vt 0.751599 0.507394
vt 0.754455 0.729191
vt 0.744797 0.730077
vt 0.741720 0.506525
vt 0.987376 0.484794
vt 0.987463 0.261129
vt 0.997182 0.258606
vt 0.997092 0.487318
vt 0.995658 0.735504
vt 0.992598 0.738609
vt 0.991835 0.734812
vt 0.749434 0.493786
vt 0.750196 0.498180
vt 0.746205 0.497179
vt 0.751197 0.261537
vt 0.751258 0.484446
vt 0.741657 0.485174
vt 0.741623 0.261083
vt 0.761710 0.736184
vt 0.983204 0.733430
vt 0.984090 0.743108
vt 0.761036 0.745835
vt 0.754309 0.016657
vt 0.751540 0.238560
vt 0.741688 0.239435
vt 0.744646 0.015776
vt 0.247463 0.493844
vt 0.257245 0.493396
vt 0.493696 0.494623
vt 0.483809 0.494004
vt 0.744875 0.494122
vt 0.734693 0.493771
vt 0.744970 0.252193
vt 0.734718 0.252480
vt 0.257844 0.252154
vt 0.484348 0.252624
vt 0.498267 0.251968
vt 0.508000 0.252545
vt 0.243319 0.493962
vt 0.243980 0.251691
vt 0.248123 0.251552
vt 0.494122 0.252119
vt 0.507868 0.493901
vt 0.233612 0.493324
vt 0.007642 0.492701
vt 0.234211 0.252176
vt 0.497935 0.494466
vt 0.000000 0.485016
vt 0.008195 0.251764
vt 0.000518 0.259415
vn -0.187689 -0.964110 0.187689
vn -0.187689 -0.964110 -0.187689
vn 0.187689 -0.964110 -0.187689
vn 0.187689 -0.964110 0.187689
vn 0.193426 0.961852 -0.193426
vn -0.187689 0.964110 -0.187689
vn -0.193426 0.961852 0.193426
vn 0.187689 0.964110 0.187689
vn 0.964110 -0.187689 -0.187689
vn 0.961852 0.193426 -0.193426
vn 0.964110 0.187689 0.187689
vn 0.964110 -0.187689 0.187689
vn 0.187689 -0.187689 0.964110
vn 0.187689 0.187689 0.964110
vn -0.193426 0.193426 0.961852
vn -0.193426 -0.193426 0.961852
vn -0.961852 -0.193426 0.193426
vn -0.961852 0.193426 0.193426
vn -0.964110 0.187689 -0.187689
vn -0.964110 -0.187689 -0.187689
vn 0.193426 0.193426 -0.961852
vn 0.187689 -0.187689 -0.964110
vn -0.187689 -0.187689 -0.964110
vn -0.187689 0.187689 -0.964110
vn -0.539598 -0.176122 0.823267
vn -0.539598 0.176122 0.823267
vn -0.823267 0.176122 0.539598
vn -0.823267 -0.176122 0.539598
vn 0.646962 -0.646962 0.403516
vn 0.403516 -0.646962 0.646962
vn 0.498856 -0.708701 0.498856
vn -0.403516 -0.646962 0.646962
vn -0.646962 -0.646962 0.403516
vn -0.498856 -0.708701 0.498856
vn 0.498856 -0.708701 -0.498856
vn 0.498856 -0.498856 -0.708701
vn 0.646962 -0.646962 -0.403516
vn -0.708701 -0.498856 -0.498856
vn -0.498856 -0.498856 -0.708701
vn -0.498856 -0.708701 -0.498856
vn -0.708701 0.498856 -0.498856
vn -0.498856 0.708701 -0.498856
vn -0.498856 0.498856 -0.708701
vn -0.175909 -0.823450 0.539384
vn 0.175909 -0.823450 0.539384
vn 0.132969 -0.700797 0.700797
vn -0.132969 -0.700797 0.700797
vn -0.175909 0.823450 -0.539384
vn 0.176122 0.823267 -0.539598
vn 0.176122 0.539598 -0.823267
vn -0.175909 0.539384 -0.823450
vn 0.175909 -0.823450 -0.539384
vn -0.175909 -0.823450 -0.539384
vn -0.175909 -0.539384 -0.823450
vn 0.175909 -0.539384 -0.823450
vn 0.498856 0.708701 0.498856
vn 0.403516 0.646962 0.646962
vn 0.646962 0.646962 0.403516
vn -0.700797 -0.700797 0.132969
vn -0.745659 -0.634327 -0.203894
vn -0.539384 -0.823450 -0.175909
vn -0.539384 -0.823450 0.175909
vn -0.745659 0.634327 -0.203894
vn -0.700797 0.700797 0.132969
vn -0.539598 0.823267 0.176122
vn -0.539384 0.823450 -0.175909
vn 0.823450 -0.175909 0.539384
vn 0.823450 0.175909 0.539384
vn 0.539384 0.175909 0.823450
vn 0.539384 -0.175909 0.823450
vn 0.539598 0.823267 -0.176122
vn 0.539384 0.823450 0.175909
vn 0.700797 0.700797 0.132969
vn 0.700797 0.700797 -0.132969
vn -0.539384 0.175909 -0.823450
vn -0.539384 -0.175909 -0.823450
vn -0.745659 -0.203894 -0.634327
vn -0.745659 0.203894 -0.634327
vn -0.646962 0.646962 0.403516
vn -0.403516 0.646962 0.646962
vn -0.495651 0.713187 0.495651
vn 0.495651 0.495651 -0.713187
vn 0.495651 0.713187 -0.495651
vn 0.646962 0.646962 -0.403516
vn 0.539384 -0.175909 -0.823450
vn 0.539598 0.176122 -0.823267
vn 0.823267 0.176122 -0.539598
vn 0.823450 -0.175909 -0.539384
vn 0.175909 0.823450 0.539384
vn -0.176122 0.823267 0.539598
vn -0.132969 0.700797 0.700797
vn 0.132969 0.700797 0.700797
vn 0.539384 -0.823450 0.175909
vn 0.539384 -0.823450 -0.175909
vn 0.700797 -0.700797 -0.132969
vn 0.700797 -0.700797 0.132969
vn -0.565783 0.338023 0.752037
vn -0.206214 0.388226 0.898190
vn 0.572192 0.344798 0.744072
vn 0.205817 0.387768 0.898465
vn 0.752037 0.338023 -0.565783
vn 0.898190 0.388226 -0.206214
vn 0.744072 -0.344798 -0.572192
vn 0.898465 -0.387768 -0.205817
vn -0.206214 -0.388226 0.898190
vn 0.205817 -0.387768 0.898465
vn 0.744072 -0.344798 0.572192
vn 0.898465 -0.387768 0.205817
vn -0.752037 0.338023 0.565783
vn -0.752037 -0.338023 0.565783
vn -0.565783 -0.338023 0.752037
vn 0.572192 -0.344798 0.744072
vn 0.898465 0.387768 0.205817
vn -0.898190 0.388226 0.206214
vn -0.916227 0.379498 -0.128269
vn -0.898190 -0.388226 0.206214
vn 0.744072 0.344798 0.572192
vn -0.916227 0.128269 -0.379498
vn -0.916227 -0.379498 -0.128269
vn -0.916227 -0.128269 -0.379498
s 1
f 4/1/1 1/2/2 2/3/3
f 4/1/1 2/3/3 3/4/4
f 6/5/5 7/6/6 8/7/7
f 6/5/5 8/7/7 5/8/8
f 10/9/9 11/10/10 12/11/11
f 10/9/9 12/11/11 9/12/12
f 14/13/13 15/14/14 16/15/15
f 14/13/13 16/15/15 13/16/16
f 18/17/17 19/18/18 20/19/19
f 18/17/17 20/19/19 17/20/20
f 22/21/21 23/22/22 24/23/23
f 22/21/21 24/23/23 21/24/24
f 26/25/25 27/26/26 28/27/27
f 26/25/25 28/27/27 25/28/28
f 101/29/29 108/30/30 29/31/31
f 110/32/32 109/33/33 32/34/34
f 36/35/35 37/36/36 100/37/37
f 39/38/38 40/39/39 38/40/40
f 42/41/41 43/42/42 41/43/43
f 45/44/44 46/45/45 107/46/46
f 45/44/44 107/46/46 44/47/47
f 49/48/48 50/49/49 51/50/50
f 49/48/48 51/50/50 48/51/51
f 53/52/52 54/53/53 55/54/54
f 53/52/52 55/54/54 52/55/55
f 57/56/56 97/57/57 106/58/58
f 113/59/59 112/60/60 62/61/61
f 113/59/59 62/61/61 59/62/62
f 115/63/63 114/64/64 66/65/65
f 115/63/63 66/65/65 63/66/66
f 68/67/67 69/68/68 70/69/69
f 68/67/67 70/69/69 67/70/70
f 72/71/71 73/72/72 105/73/73
f 72/71/71 105/73/73 104/74/74
f 76/75/75 77/76/76 78/77/77
f 76/75/75 78/77/77 75/78/78
f 119/79/79 118/80/80 79/81/81
f 83/82/82 84/83/83 103/84/84
f 86/85/85 87/86/86 88/87/87
f 86/85/85 88/87/87 85/88/88
f 90/89/89 91/90/90 120/91/91
f 90/89/89 120/91/91 98/92/92
f 94/93/93 95/94/94 99/95/95
f 94/93/93 99/95/95 102/96/96
f 5/8/8 8/7/7 91/90/90
f 5/8/8 91/90/90 90/89/89
f 113/59/59 59/62/62 32/34/34
f 113/59/59 32/34/34 109/33/33
f 39/38/38 38/40/40 62/61/61
f 39/38/38 62/61/61 112/60/60
f 66/65/65 114/64/64 119/79/79
f 66/65/65 119/79/79 79/81/81
f 52/55/55 86/85/85 37/36/36
f 48/51/51 76/75/75 41/43/43
f 83/82/82 87/86/86 22/21/21
f 83/82/82 22/21/21 51/50/50
f 81/97/97 27/26/26 16/15/15
f 81/97/97 16/15/15 92/98/98
f 70/69/69 58/99/99 89/100/100
f 11/10/10 10/9/9 85/88/88
f 11/10/10 85/88/88 88/87/87
f 42/41/41 75/78/78 115/63/63
f 82/101/101 71/102/102 11/10/10
f 82/101/101 11/10/10 88/87/87
f 35/103/103 85/88/88 96/104/104
f 15/14/14 14/13/13 67/70/70
f 15/14/14 67/70/70 70/69/69
f 111/105/105 47/106/106 14/13/13
f 111/105/105 14/13/13 13/16/16
f 68/67/67 30/107/107 93/108/108
f 81/97/97 80/109/109 28/27/27
f 81/97/97 28/27/27 27/26/26
f 49/48/48 63/66/66 7/6/6
f 8/7/7 66/65/65 79/81/81
f 8/7/7 79/81/81 91/90/90
f 83/82/82 82/101/101 88/87/87
f 83/82/82 88/87/87 87/86/86
f 53/52/52 36/35/35 95/94/94
f 87/86/86 86/85/85 23/22/22
f 87/86/86 23/22/22 22/21/21
f 26/25/25 25/28/28 34/110/110
f 26/25/25 34/110/110 33/111/111
f 93/108/108 96/104/104 10/9/9
f 93/108/108 10/9/9 9/12/12
f 103/84/84 84/83/83 72/71/71
f 103/84/84 72/71/71 104/74/74
f 50/49/49 6/5/5 72/71/71
f 50/49/49 72/71/71 84/83/83
f 31/112/112 67/70/70 47/106/106
f 12/11/11 11/10/10 71/102/102
f 12/11/11 71/102/102 74/113/113
f 46/45/45 45/44/44 4/1/1
f 46/45/45 4/1/1 3/4/4
f 65/114/114 64/115/115 20/19/19
f 65/114/114 20/19/19 19/18/18
f 79/81/81 118/80/80 120/91/91
f 79/81/81 120/91/91 91/90/90
f 76/75/75 75/78/78 42/41/41
f 76/75/75 42/41/41 41/43/43
f 68/67/67 93/108/108 9/12/12
f 54/53/53 1/2/2 62/61/61
f 24/23/23 55/54/54 77/76/76
f 21/24/24 24/23/23 77/76/76
f 21/24/24 77/76/76 76/75/75
f 34/110/110 25/28/28 18/17/17
f 34/110/110 18/17/17 60/116/116
f 78/77/77 77/76/76 40/39/39
f 78/77/77 40/39/39 39/38/38
f 12/11/11 74/113/113 69/68/68
f 77/76/76 55/54/54 40/39/39
f 36/35/35 100/37/37 99/95/95
f 36/35/35 99/95/95 95/94/94
f 67/70/70 14/13/13 47/106/106
f 45/44/44 59/62/62 4/1/1
f 48/51/51 21/24/24 76/75/75
f 9/12/12 12/11/11 69/68/68
f 9/12/12 69/68/68 68/67/67
f 56/117/117 69/68/68 74/113/113
f 86/85/85 85/88/88 35/103/103
f 86/85/85 35/103/103 37/36/36
f 95/94/94 94/93/93 3/4/4
f 95/94/94 3/4/4 2/3/3
f 49/48/48 48/51/51 41/43/43
f 49/48/48 41/43/43 43/42/42
f 1/2/2 4/1/1 59/62/62
f 1/2/2 59/62/62 62/61/61
f 85/88/88 10/9/9 96/104/104
f 52/55/55 23/22/22 86/85/85
f 70/69/69 89/100/100 15/14/14
f 19/18/18 18/17/17 25/28/28
f 19/18/18 25/28/28 28/27/27
f 97/57/57 57/56/56 90/89/89
f 97/57/57 90/89/89 98/92/92
f 43/42/42 42/41/41 115/63/63
f 43/42/42 115/63/63 63/66/66
f 57/56/56 73/72/72 90/89/89
f 64/115/115 116/118/118 20/19/19
f 13/16/16 16/15/15 27/26/26
f 13/16/16 27/26/26 26/25/25
f 31/112/112 30/107/107 68/67/67
f 31/112/112 68/67/67 67/70/70
f 6/5/5 5/8/8 73/72/72
f 6/5/5 73/72/72 72/71/71
f 38/40/40 40/39/39 55/54/54
f 38/40/40 55/54/54 54/53/53
f 16/15/15 15/14/14 89/100/100
f 16/15/15 89/100/100 92/98/98
f 57/56/56 106/58/58 105/73/73
f 57/56/56 105/73/73 73/72/72
f 50/49/49 49/48/48 7/6/6
f 50/49/49 7/6/6 6/5/5
f 45/44/44 44/47/47 110/32/32
f 45/44/44 110/32/32 32/34/34
f 48/51/51 51/50/50 22/21/21
f 48/51/51 22/21/21 21/24/24
f 78/77/77 39/38/38 112/60/60
f 18/17/17 17/20/20 61/119/119
f 18/17/17 61/119/119 60/116/116
f 49/48/48 43/42/42 63/66/66
f 38/40/40 54/53/53 62/61/61
f 26/25/25 33/111/111 111/105/105
f 26/25/25 111/105/105 13/16/16
f 73/72/72 5/8/8 90/89/89
f 8/7/7 7/6/6 63/66/66
f 8/7/7 63/66/66 66/65/65
f 45/44/44 32/34/34 59/62/62
f 46/45/45 3/4/4 94/93/93
f 94/93/93 102/96/96 101/29/29
f 94/93/93 101/29/29 29/31/31
f 46/45/45 94/93/93 29/31/31
f 24/23/23 23/22/22 52/55/55
f 24/23/23 52/55/55 55/54/54
f 53/52/52 95/94/94 2/3/3
f 56/117/117 58/99/99 70/69/69
f 56/117/117 70/69/69 69/68/68
f 2/3/3 1/2/2 54/53/53
f 2/3/3 54/53/53 53/52/52
f 116/118/118 117/120/120 17/20/20
f 116/118/118 17/20/20 20/19/19
f 84/83/83 83/82/82 51/50/50
f 84/83/83 51/50/50 50/49/49
f 61/119/119 17/20/20 117/120/120
f 37/36/36 36/35/35 53/52/52
f 37/36/36 53/52/52 52/55/55
f 80/109/109 65/114/114 19/18/18
f 80/109/109 19/18/18 28/27/27
f 29/31/31 108/30/30 107/46/46
f 29/31/31 107/46/46 46/45/45
